<svg id="Layer_1" data-name="Layer 1" xmlns="http://www.w3.org/2000/svg" viewBox="0 0 128 128"><path d="M257.33,352.37q-.76-2.42-1.52-4.82t-1.4-4.66c-.43-1.49-.8-2.86-1.14-4.1h-.09a68,68,0,0,1-1.78,6.77q-1.18,3.81-2.41,7.78c-.81,2.65-1.61,6.15-2.4,8.4H260c-.34-1.12-.73-3.44-1.18-4.85S257.84,354,257.33,352.37Z" transform="translate(-210.52 -292.6)"/><path d="M302.32,350.89a7.34,7.34,0,0,0-7,4,17.55,17.55,0,0,0-1.3,4.55h11.08c1.35,0,2.35,0,3,0a6.24,6.24,0,0,0,1.22-.13v-.51a14.55,14.55,0,0,0-.17-3A6.91,6.91,0,0,0,302.32,350.89Z" transform="translate(-210.52 -292.6)"/><path d="M318.52,292.6h-88a20,20,0,0,0-20,20v88a20,20,0,0,0,20,20h88a20,20,0,0,0,20-20v-88A20,20,0,0,0,318.52,292.6Zm-39.29,91.78h-11a.78.78,0,0,1-.85-.59l-4.31-13.05H243.54l-4,12.88a1,1,0,0,1-1,.76h-9.9c-.56,0-.76-.31-.59-.93l16.92-48c.17-.51.34-1.08.51-1.73a18.81,18.81,0,0,0,.34-3.43.53.53,0,0,1,.44-.59h13.6c.39,0,.61.14.67.42l19.2,53.45C279.91,384.1,279.74,384.39,279.23,384.38Zm41.67-21a13.74,13.74,0,0,1-.33,1.79.76.76,0,0,1-.76.68c-.33,0-.91,0-1.73.13s-2.27.05-3.48.08-2.5,0-3.85,0H294.09a12.88,12.88,0,0,0,1.72,4.84,8.65,8.65,0,0,0,3.85,3.17,16.51,16.51,0,0,0,6.86,1.46,23.37,23.37,0,0,0,4.72-.37,23.12,23.12,0,0,0,4.95-1.48q.42-.35.42.42v8a1.28,1.28,0,0,1-.13.63,1.15,1.15,0,0,1-.38.38,23.67,23.67,0,0,1-5.5,1.82,34.08,34.08,0,0,1-6.85.27,24.25,24.25,0,0,1-10.06-1.86,18,18,0,0,1-6.6-5,19.66,19.66,0,0,1-3.64-6.9,27.11,27.11,0,0,1-1.1-7.65,26.78,26.78,0,0,1,1.32-8.33,21.67,21.67,0,0,1,3.93-7.19,19,19,0,0,1,6.35-5,19.89,19.89,0,0,1,8.8-1.82,21.2,21.2,0,0,1,8.6,1.7,14.74,14.74,0,0,1,5.54,4.36,19.09,19.09,0,0,1,3.12,6,21.24,21.24,0,0,1,1,6.43C321,361.27,321,362.39,320.9,363.41Z" transform="translate(-210.52 -292.6)"/></svg>