<svg id="Layer_1" data-name="Layer 1" xmlns="http://www.w3.org/2000/svg" viewBox="0 0 658.21 745.92"><path d="M660.33,48.08H337.43Q175.22,48.08,13,48c-4.09,0-5.49.77-5,5.11,1.26,11.75,2.09,23.54,3.13,35.32q6.83,77.87,13.65,155.72,5.81,66.67,11.49,133.35Q40.63,428.24,45,479q3.09,36.08,6.21,72.15,3.76,43.53,7.57,87.05c2.22,25.37,4.51,50.74,6.64,76.12.25,2.88,1.14,4.18,4.13,5Q201.9,756.25,334.2,793.46a10.12,10.12,0,0,0,5.82,0c19.52-5.52,39.07-11,58.6-16.43q102.81-28.83,205.62-57.67c2.48-.69,4.47-1,4.74-4.51,1.31-17.59,3-35.16,4.49-52.73q6.24-73.15,12.46-146.3c3.46-40,7.11-79.91,10.61-119.87q4.61-52.47,9.05-105,5-57.7,10-115.41,5.21-60.7,10.3-121.42C666.43,48.08,666.44,48.08,660.33,48.08Zm-116,144.23c-.87,13.46-2.33,26.87-3.44,40.31-.76,9.29-2.15,18.56-2.28,27.85-.11,7.07-3,10.81-9.1,13.8-30.34,14.93-60.53,30.18-90.8,45.28-20.72,10.34-41.35,20.85-62.18,31a2,2,0,0,1-1.33.18,5,5,0,0,0,2,0c31.82-.12,63.64,0,95.46-.05,16.5,0,33-.05,49.48,0,7.39,0,8.63,1.65,7.88,9.09-2.56,25.34-4.36,50.75-6.68,76.11q-2.32,25.37-4.53,50.74-2.73,31.33-5.36,62.68c-1.38,16.09-2.9,32.17-4.11,48.27-.35,4.64-3.19,6.57-7.22,7.72-17.13,4.91-34.33,9.58-51.52,14.3-32.93,9-65.81,18.28-98.74,27.29-4.85,1.33-9.62,4-15,2.43l-122.58-34c-14.57-4-29.13-8.14-43.74-12-2.69-.72-3.64-1.87-3.88-4.69q-5-59.7-10.4-119.38c-.31-3.39.75-3.82,3.66-3.81,25.82.09,51.64.13,77.46,0,3.69,0,4.27,1.41,4.47,4.63,1.19,19.1,2.63,38.2,3.91,57.3.14,2.13.27,3.57,2.92,4.28,29,7.88,58,15.93,87,23.93,18.27-6.82,37.36-10.77,56-16.16,9.59-2.77,19.2-5.53,28.86-8.09,6-1.59,6.22-2.24,6.6-8.19,1.12-17.6,2.61-35.17,3.65-52.78.7-11.79,2-23.54,2.3-35.36.2-8,.11-8-8.19-8-25.15,0-50.33.69-75.45-.14-64.57-2.14-129.15-.37-193.73-1-1.14,0-2.34.24-3.41-.43-2.37-27.52-4.71-55-7.17-82.56-.23-2.66.25-4.15,2.85-5.44q75.22-37.5,150.34-75.2c1-.52,2.1-1,3.12-1.58a4.87,4.87,0,0,0,.89-.92,3.92,3.92,0,0,0-1.16-.5c-1-.07-2,0-3,0q-77.44,0-154.91.08c-2,0-3.46-.15-4.39-1s-1.23-1.91-1.39-3.93c-1.91-24.55-4.12-49.08-6.48-73.59-.41-4.29.77-5.18,4.94-5.17q97.7.2,195.39.08c1.83,0,9.76.08,12.08.07q96.45,0,192.92,0C543.73,185.65,544.82,184.81,544.33,192.31Z" transform="translate(-7.91 -47.99)"/></svg>