<svg id="Layer_1" data-name="Layer 1" xmlns="http://www.w3.org/2000/svg" viewBox="0 0 128 128"><path d="M271,232.24l-1.52-4.82c-.51-1.61-1-3.16-1.4-4.65s-.8-2.86-1.14-4.1h-.09a65.89,65.89,0,0,1-1.78,6.76q-1.19,3.81-2.41,7.79c-.81,2.64-1.65,6.05-2.44,8.3h14.31c-.34-1.13-1.5-3.73-1.95-5.14S271.49,233.85,271,232.24Z" transform="translate(-214.39 -172.6)"/><path d="M322.39,172.6h-88a20,20,0,0,0-20,20v88a20,20,0,0,0,20,20h88a20,20,0,0,0,20-20v-88A20,20,0,0,0,322.39,172.6Zm-29.46,91.73h-11a.79.79,0,0,1-.85-.59l-4.29-13.22H257.26l-4,13a1,1,0,0,1-1,.76h-9.9q-.86,0-.6-.93l16.87-48.71c.17-.5.34-1.08.51-1.73a11.77,11.77,0,0,0,.34-2.89.53.53,0,0,1,.44-.6h13.6c.39,0,.62.15.67.43l19.25,53.58C293.61,264.05,293.44,264.33,292.93,264.33Zm17.43-.84c0,.56-.22.85-.67.85h-9.52c-.51,0-.77-.29-.77-.85V224.82c0-.51.23-.76.68-.76h9.61c.45,0,.67.26.67.76Zm-.62-47.05a6.51,6.51,0,0,1-4.86,1.86,6.14,6.14,0,0,1-4.65-1.86,6.71,6.71,0,0,1-1.78-4.82,6.24,6.24,0,0,1,1.9-4.7,6.54,6.54,0,0,1,4.69-1.81,6.29,6.29,0,0,1,4.78,1.81,6.58,6.58,0,0,1,1.74,4.7A6.65,6.65,0,0,1,309.74,216.44Z" transform="translate(-214.39 -172.6)"/></svg>