<svg id="Layer_1" data-name="Layer 1" xmlns="http://www.w3.org/2000/svg" viewBox="0 0 128 128"><path d="M312.71,206.66h-88a20,20,0,0,0-20,20v88a20,20,0,0,0,20,20h88a20,20,0,0,0,20-20v-88A20,20,0,0,0,312.71,206.66Zm-42.55,66a17.67,17.67,0,0,1-8.45,6.38,33.67,33.67,0,0,1-11.84,2c-1.24,0-2.12,0-2.62,0s-1.27,0-2.29,0v16.66a.66.66,0,0,1-.57.76H233.88c-.39,0-.59-.23-.59-.68v-54c0-.39.17-.59.51-.59.9,0,2,0,3.21,0l4-.09,4.56-.08c1.61,0,3.2,0,4.78,0a31.83,31.83,0,0,1,10.83,1.6,18.8,18.8,0,0,1,7.06,4.32,16.54,16.54,0,0,1,3.85,6,19.72,19.72,0,0,1,1.18,6.81A18.75,18.75,0,0,1,270.16,272.61Zm36.26,20.17a13.26,13.26,0,0,1-5.88,4.69,23.46,23.46,0,0,1-9.51,1.69,34.31,34.31,0,0,1-7.15-.67,27,27,0,0,1-5.71-1.69,1.09,1.09,0,0,1-.59-1v-9.13a.52.52,0,0,1,.21-.47.41.41,0,0,1,.46.05,25.17,25.17,0,0,0,6.86,2.58,27.32,27.32,0,0,0,6.17.8,9.44,9.44,0,0,0,4.36-.77,2.38,2.38,0,0,0,1.4-2.2,2.78,2.78,0,0,0-1.27-2.11,21.06,21.06,0,0,0-5.16-2.45,31.4,31.4,0,0,1-7.48-3.81,12.85,12.85,0,0,1-4-4.44,11.75,11.75,0,0,1-1.23-5.37,12.21,12.21,0,0,1,1.78-6.34,12.91,12.91,0,0,1,5.5-4.82,17.5,17.5,0,0,1,8.55-2.14,54.71,54.71,0,0,1,7.13.1,24.51,24.51,0,0,1,5.59,1.87.74.74,0,0,1,.5.46,2.3,2.3,0,0,1,.09.64v8.54a.57.57,0,0,1-.26.51.53.53,0,0,1-.59,0h0a29.31,29.31,0,0,0-6.09-1.77,26.46,26.46,0,0,0-5.88-.68,10.93,10.93,0,0,0-3.17.38,2.89,2.89,0,0,0-1.65,1.05,2.63,2.63,0,0,0-.42,1.44,2.25,2.25,0,0,0,.5,1.36,6.07,6.07,0,0,0,1.78,1.4,39.21,39.21,0,0,0,3.72,1.73,36.76,36.76,0,0,1,8.08,3.85,12.24,12.24,0,0,1,4.14,4.35,11.69,11.69,0,0,1,1.23,5.41A12.17,12.17,0,0,1,306.42,292.78Z" transform="translate(-204.71 -206.66)"/><path d="M260.56,257.05a7.9,7.9,0,0,0-3.68-3,15.47,15.47,0,0,0-6.17-1.06c-1.35,0-2.55,0-3.59,0a21.28,21.28,0,0,0-2.16.13v17.5c.73.06,1.41.09,2,.09h2.79a20,20,0,0,0,6.05-.85,9,9,0,0,0,4.31-2.79,8.11,8.11,0,0,0,1.65-5.41A8.54,8.54,0,0,0,260.56,257.05Z" transform="translate(-204.71 -206.66)"/></svg>