<svg id="Layer_1" data-name="Layer 1" xmlns="http://www.w3.org/2000/svg" viewBox="0 0 128 128"><path d="M285.23,214.83a7.58,7.58,0,0,0-3.66-3,19.64,19.64,0,0,0-6.17-1.14h-3.66a13.08,13.08,0,0,1-3.42-.23v17.6c.68,0,2.74.46,3.42.46h2.75a16.9,16.9,0,0,0,5.94-.92,8.72,8.72,0,0,0,4.34-2.74,7.78,7.78,0,0,0,1.6-5.48A10.27,10.27,0,0,0,285.23,214.83Z" transform="translate(-227.16 -164.47)"/><path d="M335.16,164.47h-88a20,20,0,0,0-20,20v88a20,20,0,0,0,20,20h88a20,20,0,0,0,20-20v-88A20,20,0,0,0,335.16,164.47ZM294.6,230.83a16.77,16.77,0,0,1-8.45,6.4,35,35,0,0,1-11.89,2.06h-2.52c-.45,0-2.51-.46-3.65-.46v16.69a.62.62,0,0,1-.52.69H257.8c-.23-.46-.46-.69-.46-1.15V201.12c0-.46.23-.69.46-.69h11.89c1.6,0,3.65.46,5.25.46a34.38,34.38,0,0,1,10.75,1.6,17.61,17.61,0,0,1,7.08,4.34,17.93,17.93,0,0,1,3.89,5.95,23.86,23.86,0,0,1,1.14,6.85A18.14,18.14,0,0,1,294.6,230.83Zm35.2-6.62c0,.45-.22.68-.91.68a12.24,12.24,0,0,0-5,.46,13.82,13.82,0,0,0-4.34,1.37,10.43,10.43,0,0,0-3.43,2.06v26.74a.61.61,0,0,1-.51.69H305.8c-.45,0-.68-.23-.91-.69V222.38a24.7,24.7,0,0,0-.23-4.12c0-1.14-.23-2.28-.23-3.43,0-.22,0-.22.23-.45,0-.23.23-.23.46-.23h9.14a1.52,1.52,0,0,1,1.14.91c.23.46.46.69.46,1.15a3.78,3.78,0,0,1,.23,1.6v1.83a18.9,18.9,0,0,1,5.71-4.58,12.1,12.1,0,0,1,7.32-1.82c.46,0,.68.22.68.45Z" transform="translate(-227.16 -164.47)"/></svg>