<svg id="Layer_1" data-name="Layer 1" xmlns="http://www.w3.org/2000/svg" viewBox="0 0 128 128"><path d="M315.12,259.18h-88a20,20,0,0,0-20,20v88a20,20,0,0,0,20,20h88a20,20,0,0,0,20-20v-88A20,20,0,0,0,315.12,259.18Zm-39,91.34c-.06.2-.25.33-.59.38h-12a1.9,1.9,0,0,1-1.78-.84c-1.13-2.2-2.26-4.22-3.38-6.4s-2.33-4.38-3.6-6.63-2.52-4.54-3.76-6.85H251q-1.69,3.38-3.51,6.77l-3.6,6.72c-1.18,2.23-2.4,4.28-3.63,6.48a1.21,1.21,0,0,1-1.19.76H227.45a.35.35,0,0,1-.38-.31v0a.81.81,0,0,1,.12-.59l16.33-26.65-15.9-26.25c-.17-.22-.2-.41-.09-.55a.6.6,0,0,1,.51-.21H240a1.65,1.65,0,0,1,.76.13,1.41,1.41,0,0,1,.51.46c1,2.26,2.14,3.87,3.38,6.12s2.5,4.48,3.77,6.68,2.44,4.43,3.51,6.68H252q1.69-3.47,3.43-6.76c1.15-2.2,2.33-4.42,3.55-6.64s2.38-3.8,3.51-6a1.33,1.33,0,0,1,.34-.55,1.18,1.18,0,0,1,.67-.12h11.08a.48.48,0,0,1,.59.35.47.47,0,0,1-.17.49l-15.73,25.32,16.83,27.41A.87.87,0,0,1,276.16,350.52Zm38.89-1.47a.92.92,0,0,1-.38.35,39.58,39.58,0,0,1-8.16,2.54,47.09,47.09,0,0,1-8.12.76,26.17,26.17,0,0,1-11.29-2.37,18,18,0,0,1-7.91-7.15,22.82,22.82,0,0,1-2.87-12,21.92,21.92,0,0,1,2.87-11.08,21.09,21.09,0,0,1,8.37-8.12,27.15,27.15,0,0,1,13.28-3c.28,0,.65,0,1.1,0s1.41.08,2,.13v-15a1.36,1.36,0,0,1,1.15-1.53h8.19a1.54,1.54,0,0,1,1.53,1.53v48.2c0,1,0,2,.12,3.13s.16,2.14.21,3A.86.86,0,0,1,315.05,349.05Z" transform="translate(-207.12 -259.18)"/><path d="M300.42,318.78a13,13,0,0,0-5.92,1.35,10.87,10.87,0,0,0-6.18,10.57,14.94,14.94,0,0,0,.89,5.42,10.37,10.37,0,0,0,2.37,3.72,9,9,0,0,0,3.55,2.11,13.64,13.64,0,0,0,4.35.68c.79,0,1.53,0,2.2-.09a11.48,11.48,0,0,0,2.1-.33V319.12a11.26,11.26,0,0,0-1.63-.25A16.56,16.56,0,0,0,300.42,318.78Z" transform="translate(-207.12 -259.18)"/></svg>