<svg id="Layer_1" data-name="Layer 1" xmlns="http://www.w3.org/2000/svg" viewBox="0 0 128 128"><path d="M384.32,161h-88a20,20,0,0,0-20,20v88a20,20,0,0,0,20,20h88a20,20,0,0,0,20-20V181A20,20,0,0,0,384.32,161Zm-62.53,90.87c0,.56-.25.84-.76.84h-9.68c-.45,0-.67-.28-.67-.84v-53c0-.45.25-.68.76-.68h9.67a.59.59,0,0,1,.68.51.49.49,0,0,1,0,.17h0Zm47.67-1.31a39.31,39.31,0,0,1-8.15,2.54,45.92,45.92,0,0,1-8.11.76,26.35,26.35,0,0,1-11.3-2.36,18,18,0,0,1-7.9-7.15,22.85,22.85,0,0,1-2.88-12A22.05,22.05,0,0,1,334,221.29a21,21,0,0,1,8.37-8.12,27,27,0,0,1,13.28-3c.28,0,.65,0,1.1,0s1.44.07,2.06.13v-16q0-.6.51-.6h9.8a.45.45,0,0,1,.51.39.24.24,0,0,1,0,.12v49.33c0,1,0,2,.13,3.13s.15,2.14.21,3.05A.87.87,0,0,1,369.46,250.55Z" transform="translate(-276.32 -160.99)"/><path d="M355.22,219.94a13.07,13.07,0,0,0-5.92,1.35,10.87,10.87,0,0,0-6.17,10.57,14.89,14.89,0,0,0,.89,5.41,10.31,10.31,0,0,0,2.36,3.72,9,9,0,0,0,3.56,2.12,14.23,14.23,0,0,0,4.35.68c.79,0,1.52,0,2.2-.09a14,14,0,0,0,2.32-.34h0V220.27A16.44,16.44,0,0,0,357,220,14.48,14.48,0,0,0,355.22,219.94Z" transform="translate(-276.32 -160.99)"/></svg>